<svg height="512pt" viewBox="-30 0 512 512.00329" width="512pt" xmlns="http://www.w3.org/2000/svg"><path d="m426.9375 417.574219c-.074219-.050781-.144531-.105469-.21875-.152344l-68.253906-41.523437c8.171875-14.675782 13.789062-30.5 16.722656-47.179688.960938-5.460938-2.6875-10.664062-8.148438-11.625-5.460937-.960938-10.664062 2.6875-11.625 8.148438-2.5 14.199218-7.230468 27.6875-14.109374 40.21875l-24.007813-14.609376-10.019531-6.097656c.554687-3.019531.835937-6.121094.835937-9.191406 0-16.082031-7.542969-30.429688-19.265625-39.71875-12.15625-34.910156-54.234375-71.527344-56.074218-73.117188-3.769532-3.253906-9.355469-3.253906-13.121094 0-.644532.558594-15.976563 13.851563-30.882813 31.859376-21.175781 25.578124-30.65625 47.539062-28.179687 65.289062.644531 4.585938 1.699218 9.058594 3.144531 13.386719l-50.5 30.726562-12.03125-20.492187-1.140625-1.949219c-1.902344-6.085937-3.375-12.402344-4.375-18.796875-.011719-.066406-.023438-.132812-.035156-.199219-6.25-35.253906-5.71875-66.558593 17.199218-104.753906 1.773438-2.957031 3.570313-5.917969 5.367188-8.882813 13.6875-22.5625 27.730469-45.710937 34.429688-70.296874 5.394531 8.015624 11.835937 19.535156 15.15625 32.597656.453124 2.113281 4.867187 23.097656 4.125 36.796875-.300782 5.539062 3.945312 10.269531 9.480468 10.566406.183594.011719.367188.015625.550782.015625 5.296874 0 9.726562-4.144531 10.015624-9.496094.882813-16.289062-3.875-39.019531-4.535156-42.074218-.855468-5.730469-9.921875-79.261719 74.765625-137.492188-.742187 13.011719-.789062 31.152344 1.894531 52.113281 4.9375 38.542969 20.476563 94.261719 66.484376 140.832031 2.5 2.53125 6.15625 3.546876 9.601562 2.675782s6.175781-3.5 7.175781-6.914063l1.304688-4.460937c2.304687 11.289062 4.625 24.371094 6.335937 37.96875.6875 5.503906 5.699219 9.40625 11.210938 8.710937 5.5-.691406 9.398437-5.710937 8.707031-11.210937-5.113281-40.757813-15.210937-75.886719-15.636719-77.363282-1.242187-4.285156-5.167968-7.238281-9.632812-7.246093-.003906 0-.007813 0-.011719 0-4.457031 0-8.382813 2.941406-9.636719 7.222656l-6.894531 23.585937c-26.660156-31.828124-43.121094-70.65625-49.003906-115.675781-5.058594-38.683593.042969-67.644531.09375-67.921875.707031-3.847656-.890625-7.757812-4.089844-10.011718-3.195313-2.257813-7.414063-2.449219-10.804687-.492188-69.570313 40.1875-92.542969 91.179688-99.617188 126.636719-.8125-1.222657-1.609375-2.382813-2.375-3.464844-7.230469-10.230469-13.515625-16.449219-13.78125-16.710937-2.808594-2.765626-6.972656-3.628907-10.652344-2.207032-3.675781 1.417969-6.183594 4.855469-6.410156 8.792969-1.621094 28.402344-18.800781 56.71875-35.414062 84.105469-1.816407 2.996094-3.628907 5.984375-5.421876 8.964844-27.636718 46.0625-25.84375 84.171874-19.769531 118.496093.539063 3.425781 1.21875 6.828125 1.988281 10.199219l-22.480468 13.363281c-2.308594 1.371094-3.960938 3.625-4.605469 6.230469-.644531 2.601562-.210937 5.375 1.1875 7.664062.085937.144532 7.949219 13.230469 9.550781 32.042969l-36.09375 21.964844c-.085937.050781-.160156.109375-.238281.164063-15.039063 8.796874-25.171875 25.109374-25.171875 43.753906 0 27.9375 22.730469 50.664062 50.664062 50.664062 11.074219 0 21.320313-3.582031 29.664063-9.628906l94.25-57.226562c16.386719 5.878906 33.578125 8.867187 51.179687 8.867187 17.738282 0 35.0625-3.03125 51.574219-9l94.492188 57.375c8.339843 6.039063 18.578125 9.613281 29.640625 9.613281 27.9375 0 50.664062-22.730468 50.664062-50.664062 0-18.65625-10.140625-34.972656-25.191406-43.765625zm-44.742188-3.082031c-15.734374 6.5-27.417968 20.863281-30.542968 37.597656-.871094 4.664062-1.066406 9.472656-.605469 14.195312l-74.925781-45.496094-30.710938-18.648437 35.3125-21.441406c3.410156-2.070313 6.777344-4.164063 9.808594-6.78125 3.535156-3.035157 6.605469-6.488281 9.140625-10.289063l4.984375 3.03125 34.847656 21.207032c.015625.007812.03125.011718.046875.023437l43.28125 26.332031c-.214843.085938-.425781.179688-.636719.269532zm-281.109374 51.789062c.5-5.136719.214843-10.363281-.847657-15.414062 11.875-6.894532 36.574219-21.222657 51.292969-29.761719 4.792969-2.78125 6.425781-8.925781 3.644531-13.71875-2.78125-4.796875-8.925781-6.429688-13.71875-3.648438l-49.28125 28.597657c-5.664062-8.089844-13.699219-14.464844-22.882812-18.113282 2.5625-1.558594 5.195312-3.023437 7.75-4.578125l37.972656-23.105469c.417969-.25.800781-.539062 1.164063-.839843l65.222656-39.683594c.011718-.003906.023437-.007813.035156-.015625l59.40625-36.148438c.054688-.027343.105469-.058593.15625-.089843.101562-.058594.207031-.117188.308594-.179688 2.273437-1.417969 4.714844-2.507812 7.257812-3.28125 2.855469-.863281 5.84375-1.320312 8.878906-1.320312 10.359376 0 20.195313 5.429687 25.773438 14.136719 5.667969 8.84375 6.355469 20.304687 1.769531 29.765624-2.585937 5.324219-6.738281 9.851563-11.804687 12.910157l-17.523438 10.636719-34.777344 21.117187c-.007812.003906-.019531.007813-.027343.011719l-52.53125 31.898437c-.011719.007813-.023438.015625-.035157.023438zm79.390624-149.183594c-2.78125-19.9375 24.3125-53.046875 45.683594-73.191406 8.746094 8.335938 24.417969 24.308594 35.039063 41.128906-10.648438-.777344-21.324219 1.859375-30.417969 7.4375l-49.285156 29.984375c-.425782-1.757812-.765625-3.546875-1.019532-5.359375zm-106.859374 44.9375 11.261718-6.695312 11.195313 19.089844-15.855469 9.648437c-1.664062-9.089844-4.300781-16.644531-6.601562-22.042969zm-53.539063 99.304688c0-11.527344 6.410156-21.578125 15.851563-26.792969 10.722656-5.910156 24.269531-4.730469 33.8125 2.902344 8.863281 7.089843 13.140624 18.78125 10.910156 29.917969-1.417969 7.078124-5.394532 13.507812-11.058594 17.972656-5.210938 4.117187-11.785156 6.585937-18.925781 6.585937-16.867188 0-30.589844-13.722656-30.589844-30.585937zm205.679687-27.402344c-9.453124 0-18.765624-.988281-27.859374-2.949219l28.167968-17.101562 28.007813 17.007812c-9.238281 2.023438-18.707031 3.042969-28.316407 3.042969zm175.707032 57.988281c-7.355469 0-14.109375-2.609375-19.390625-6.953125-.019531-.015625-.039063-.03125-.058594-.046875-.367187-.300781-.722656-.609375-1.074219-.925781-.015625-.015625-.03125-.03125-.046875-.042969-4.675781-4.253906-8.027343-9.9375-9.367187-16.351562-1.796875-8.75.300781-17.972657 5.796875-25.027344 5.21875-6.703125 13.140625-11.027344 21.613281-11.722656 5.972656-.488281 12.054688.808593 17.296875 3.710937 9.421875 5.21875 15.816406 15.261719 15.816406 26.769532 0 16.867187-13.71875 30.589843-30.585937 30.589843zm0 0"/><path d="m224.71875 356.003906c1.761719 0 3.539062-.460937 5.15625-1.429687l19.742188-11.847657c4.753906-2.851562 6.292968-9.015624 3.441406-13.769531-2.855469-4.757812-9.019532-6.296875-13.773438-3.445312l-19.738281 11.84375c-4.753906 2.851562-6.296875 9.019531-3.445313 13.773437 1.882813 3.136719 5.207032 4.875 8.617188 4.875zm0 0"/><path d="m338.441406 127.132812c1.84375 0 3.722656-.511718 5.421875-1.597656 4.441407-2.84375 5.730469-8.761718 3.285157-13.433594-3.964844-7.5625-3.652344-14.632812-2.53125-19.515624.96875-4.238282-.800782-8.625-4.53125-10.859376l-.191407-.117187c-5.777343-3.464844-13.214843-.273437-14.761719 6.28125-2.027343 8.613281-2.554687 20.871094 4.449219 33.941406 1.8125 3.378907 5.277344 5.300781 8.859375 5.300781zm0 0"/><path d="m149.097656 72.125c5.691406 4.457031 14.195313 1.714844 15.996094-5.28125 2.082031-8.097656 1.9375-18.359375-4.269531-28.941406-4.234375-7.21875-3.257813-13.148438-1.386719-17.140625 1.753906-3.75 1.210938-8.160157-1.585938-11.210938-4.78125-5.214843-13.351562-3.972656-16.390624 2.414063-4.378907 9.207031-6.179688 22.070312 2.046874 36.097656 3.003907 5.125 2.890626 9.996094 2.027344 13.570312-.9375 3.910157.394532 8.015626 3.5625 10.492188zm0 0"/><path d="m91.78125 142.125c6.355469 3.886719 14.578125-.3125 15.144531-7.742188.429688-5.640624-.199219-12.726562-3.347656-20.898437-1.992187-5.175781-7.808594-7.753906-12.976563-5.761719-5.175781 1.992188-7.753906 7.804688-5.761718 12.976563 1.945312 5.050781 2.277344 9.183593 2.066406 12.179687-.265625 3.738282 1.675781 7.292969 4.875 9.246094zm0 0"/><path d="m373.324219 279.878906c-3.53125-2.359375-8.324219-2.207031-11.6875.386719-3.273438 2.523437-4.695313 6.914063-3.492188 10.875s4.816407 6.824219 8.949219 7.105469c4.242188.285156 8.308594-2.261719 9.925781-6.183594 1.816407-4.402344.214844-9.511719-3.695312-12.183594zm0 0"/><path d="m170.117188 396.234375c1.636718 3.933594 5.683593 6.445313 9.933593 6.175781 4.132813-.261718 7.738281-3.152344 8.945313-7.105468 1.203125-3.9375-.210938-8.378907-3.492188-10.875-3.4375-2.617188-8.253906-2.726563-11.816406-.289063-3.859375 2.644531-5.335938 7.785156-3.570312 12.09375zm0 0"/></svg>