<?xml version="1.0" encoding="iso-8859-1"?>
<!-- Generator: Adobe Illustrator 16.0.0, SVG Export Plug-In . SVG Version: 6.00 Build 0)  -->
<!DOCTYPE svg PUBLIC "-//W3C//DTD SVG 1.1//EN" "http://www.w3.org/Graphics/SVG/1.1/DTD/svg11.dtd">
<svg version="1.1" id="Capa_1" xmlns="http://www.w3.org/2000/svg" xmlns:xlink="http://www.w3.org/1999/xlink" x="0px" y="0px"
	 width="186.803px" height="186.803px" viewBox="0 0 186.803 186.803" style="enable-background:new 0 0 186.803 186.803;"
	 xml:space="preserve">
<g>
	<g>
		<path d="M128.776,44.088l-34.227-9.13V1.149C94.55,0.514,94.033,0,93.4,0c-0.631,0-1.148,0.514-1.148,1.149v33.809l-34.225,9.13
			c-1.839,0.487-2.93,2.38-2.444,4.219c0.487,1.839,2.37,2.947,4.22,2.449l33.597-8.96l33.598,8.96l0.892,0.118
			c1.521,0,2.917-1.021,3.328-2.561C131.709,46.468,130.621,44.575,128.776,44.088z"/>
		<rect x="61.786" y="52.017" width="2.299" height="40.236"/>
		<rect x="59.49" y="96.848" width="6.898" height="55.18"/>
		<rect x="77.023" y="47.42" width="2.295" height="40.238"/>
		<rect x="74.719" y="92.252" width="6.898" height="55.185"/>
		<rect x="107.485" y="47.42" width="2.292" height="40.238"/>
		<rect x="105.188" y="92.252" width="6.896" height="55.185"/>
		<rect x="122.714" y="52.017" width="2.298" height="40.236"/>
		<rect x="120.415" y="96.848" width="6.896" height="55.18"/>
		<path d="M94.55,153.292V43.683h-2.298v109.609c-8.731,0.602-15.661,7.825-15.661,16.7c0,9.265,7.543,16.811,16.809,16.811
			c9.27,0,16.811-7.546,16.811-16.811C110.211,161.118,103.282,153.894,94.55,153.292z M93.4,179.908
			c-5.468,0-9.917-4.454-9.917-9.92c0-5.467,4.449-9.921,9.917-9.921c5.469,0,9.92,4.454,9.92,9.921
			C103.32,175.454,98.869,179.908,93.4,179.908z"/>
	</g>
</g>
<g>
</g>
<g>
</g>
<g>
</g>
<g>
</g>
<g>
</g>
<g>
</g>
<g>
</g>
<g>
</g>
<g>
</g>
<g>
</g>
<g>
</g>
<g>
</g>
<g>
</g>
<g>
</g>
<g>
</g>
</svg>
