<?xml version="1.0" encoding="iso-8859-1"?>
<!-- Generator: Adobe Illustrator 16.0.0, SVG Export Plug-In . SVG Version: 6.00 Build 0)  -->
<!DOCTYPE svg PUBLIC "-//W3C//DTD SVG 1.1//EN" "http://www.w3.org/Graphics/SVG/1.1/DTD/svg11.dtd">
<svg version="1.1" id="Capa_1" xmlns="http://www.w3.org/2000/svg" xmlns:xlink="http://www.w3.org/1999/xlink" x="0px" y="0px"
	 width="61.434px" height="61.434px" viewBox="0 0 61.434 61.434" style="enable-background:new 0 0 61.434 61.434;"
	 xml:space="preserve">
<g>
	<g>
		<path d="M29.875,0L29.875,0c-0.962,0-1.845,0.582-2.424,1.598L23.77,8.065h2.996l2.948-5.179c0.062-0.107,0.117-0.181,0.16-0.227
			c0.044,0.046,0.1,0.12,0.161,0.226l2.947,5.18h2.996l-3.682-6.467C31.721,0.582,30.837,0,29.875,0z"/>
		<path d="M49.995,16.481v14.851c0,0.438,0,0.728-1.86,0.728c-1.861,0-1.861-0.289-1.861-0.728V16.481h-1.042h-1.042v14.851v4.53
			c0,0.439,0,0.729-1.861,0.729c-1.859,0-1.859-0.289-1.859-0.729V22.294v-5.813h-1.042h-1.041v1.074v2.329v2.604v13.373v4.532
			c0,0.438,0,0.729-1.862,0.729c-1.86,0-1.86-0.291-1.86-0.729V22.489v-2.604v-3.404h-1.041H32.58v3.404v2.604v17.904v4.533
			c0,0.438,0,0.728-1.862,0.728c-1.861,0-1.861-0.29-1.861-0.728V22.489v-2.604v-3.404h-1.042h-1.042v3.404v2.604v22.435v4.636
			c0,0.439,0,0.729-1.86,0.729c-1.862,0-1.862-0.289-1.862-0.729V22.489v-2.604v-3.404H22.01h-0.035h-1.008v0.286V49.56v4.532
			c0,0.438,0,0.729-1.861,0.729c-1.861,0-1.861-0.29-1.861-0.729V16.481h-1.042h-1.042v37.611v4.532c0,0.437,0,0.728-1.86,0.728
			c-1.861,0-1.861-0.291-1.861-0.728V16.481h-1.042H9.357v42.141c0,2.812,2.764,2.812,3.944,2.812s3.944,0,3.944-2.812V56.73
			c0.689,0.171,1.398,0.174,1.861,0.174c1.18,0,3.944,0,3.944-2.812v-1.894c0.689,0.171,1.398,0.176,1.861,0.176
			c1.18,0,3.944,0,3.944-2.812v-1.997c0.689,0.171,1.398,0.173,1.861,0.173c1.18,0,3.945,0,3.945-2.811v-1.894
			c0.688,0.171,1.396,0.173,1.86,0.173c1.181,0,3.944,0,3.944-2.812v-1.894c0.689,0.171,1.397,0.173,1.861,0.173
			c1.181,0,3.945,0,3.945-2.812V33.97c0.688,0.171,1.396,0.173,1.859,0.173c1.18,0,3.945,0,3.945-2.812V16.481h-1.042H49.995z"/>
		<path d="M53.072,10.148H37.165H34.17h-8.59h-2.996H8.362c-1.173,0-2.124,0.951-2.124,2.124s0.951,2.124,2.124,2.124h11.802h2.996
			h13.427h2.997h13.487c1.173,0,2.124-0.951,2.124-2.124S54.245,10.148,53.072,10.148z"/>
		<circle cx="13.301" cy="27.806" r="1.01"/>
		<circle cx="19.106" cy="27.806" r="1.01"/>
		<circle cx="24.912" cy="27.806" r="1.01"/>
		<circle cx="30.717" cy="27.806" r="1.01"/>
		<circle cx="36.522" cy="27.806" r="1.01"/>
		<circle cx="42.328" cy="27.806" r="1.01"/>
		<circle cx="48.135" cy="27.806" r="1.01"/>
	</g>
</g>
<g>
</g>
<g>
</g>
<g>
</g>
<g>
</g>
<g>
</g>
<g>
</g>
<g>
</g>
<g>
</g>
<g>
</g>
<g>
</g>
<g>
</g>
<g>
</g>
<g>
</g>
<g>
</g>
<g>
</g>
</svg>
